<svg width="15" height="14" viewBox="0 0 15 14" fill="none" xmlns="http://www.w3.org/2000/svg">
<path fill-rule="evenodd" clip-rule="evenodd" d="M0.893128 11.5962C0.426294 12.0193 0.426294 12.7052 0.893128 13.1283C1.35996 13.5513 2.11685 13.5513 2.58368 13.1283L7.65533 8.53208L12.727 13.1283C13.1938 13.5513 13.9507 13.5513 14.4175 13.1283C14.8844 12.7052 14.8844 12.0193 14.4175 11.5962L9.34588 7.00002L14.4176 2.40381C14.8844 1.98074 14.8844 1.29481 14.4176 0.871744C13.9507 0.448676 13.1938 0.448677 12.727 0.871745L7.65533 5.46795L2.58365 0.871745C2.11681 0.448677 1.35993 0.448677 0.893093 0.871745C0.42626 1.29481 0.426261 1.98074 0.893095 2.40381L5.96477 7.00002L0.893128 11.5962Z" fill="#80868C"/>
</svg>
