<svg width="120" height="120" viewBox="0 0 120 120" fill="none" xmlns="http://www.w3.org/2000/svg">
<path opacity="0.2" fill-rule="evenodd" clip-rule="evenodd" d="M60 110C87.6142 110 110 87.6142 110 60C110 32.3858 87.6142 10 60 10C32.3858 10 10 32.3858 10 60C10 87.6142 32.3858 110 60 110Z" fill="#4DC188"/>
<path d="M49.4401 74.7038L81.7955 42.3483C83.26 40.8839 85.6343 40.8839 87.0988 42.3483C88.5633 43.8128 88.5633 46.1872 87.0988 47.6517L50.1472 84.6033C49.7566 84.9938 49.1235 84.9938 48.733 84.6033L32.3483 68.2187C30.8839 66.7542 30.8839 64.3799 32.3483 62.9154C33.8128 61.4509 36.1872 61.4509 37.6517 62.9154L49.4401 74.7038Z" fill="#4DC188"/>
</svg>
