<svg width="16" height="16" viewBox="0 0 16 16" fill="none" xmlns="http://www.w3.org/2000/svg">
<path d="M13.2163 2.80704C11.8575 1.41966 9.9792 0.666504 8.06094 0.666504C3.98465 0.666504 0.707627 3.95659 0.747591 7.9602C0.747591 9.22867 1.10726 10.4575 1.70672 11.5674L0.667664 15.3332L4.54414 14.3422C5.62316 14.9368 6.82207 15.2143 8.02098 15.2143C12.0573 15.2143 15.3343 11.9242 15.3343 7.92056C15.3343 5.97822 14.575 4.15479 13.2163 2.80704ZM8.06094 13.9854C6.98192 13.9854 5.9029 13.7079 4.98374 13.153L4.74396 13.0341L2.42606 13.6287L3.02552 11.3692L2.86567 11.1314C1.10726 8.31695 1.9465 4.59083 4.82388 2.84668C7.70127 1.10254 11.4179 1.93497 13.1763 4.78903C14.9347 7.64308 14.0955 11.3296 11.2181 13.0737C10.2989 13.6683 9.17992 13.9854 8.06094 13.9854ZM11.5777 9.58542L11.1381 9.38722C11.1381 9.38722 10.4987 9.10975 10.0991 8.91155C10.0591 8.91155 10.0192 8.87191 9.9792 8.87191C9.85931 8.87191 9.77938 8.91155 9.69945 8.95119C9.69945 8.95119 9.65949 8.99083 9.1 9.62506C9.06003 9.70434 8.98011 9.74398 8.90018 9.74398H8.86022C8.82025 9.74398 8.74032 9.70434 8.70036 9.6647L8.50054 9.58542C8.06094 9.38722 7.66131 9.14939 7.3416 8.83227C7.26167 8.75299 7.14178 8.67371 7.06185 8.59443C6.7821 8.31695 6.50236 7.99984 6.30254 7.64308L6.26258 7.5638C6.22261 7.52416 6.22261 7.48452 6.18265 7.40524C6.18265 7.32596 6.18265 7.24668 6.22261 7.20704C6.22261 7.20704 6.38247 7.00885 6.50236 6.88993C6.58229 6.81065 6.62225 6.69173 6.70218 6.61245C6.7821 6.49353 6.82207 6.33497 6.7821 6.21605C6.74214 6.01786 6.26258 4.94758 6.14269 4.70975C6.06276 4.59083 5.98283 4.55119 5.86294 4.51155H5.74305C5.66312 4.51155 5.54323 4.51155 5.42334 4.51155C5.34341 4.51155 5.26349 4.55119 5.18356 4.55119L5.14359 4.59083C5.06367 4.63047 4.98374 4.70975 4.90381 4.74939C4.82389 4.82867 4.78392 4.90795 4.70399 4.98722C4.42425 5.34398 4.26439 5.78002 4.26439 6.21605C4.26439 6.53317 4.34432 6.85029 4.46421 7.12776L4.50418 7.24668C4.86385 7.99984 5.34341 8.67371 5.98283 9.26831L6.14269 9.42686C6.26258 9.54578 6.38247 9.62506 6.4624 9.74398C7.30163 10.4575 8.26076 10.9728 9.33978 11.2503C9.45967 11.2899 9.61953 11.2899 9.73942 11.3296C9.85931 11.3296 10.0192 11.3296 10.1391 11.3296C10.3389 11.3296 10.5787 11.2503 10.7385 11.171C10.8584 11.0917 10.9383 11.0917 11.0183 11.0125L11.0982 10.9332C11.1781 10.8539 11.258 10.8143 11.338 10.735C11.4179 10.6557 11.4978 10.5764 11.5378 10.4971C11.6177 10.3386 11.6577 10.1404 11.6976 9.94218C11.6976 9.8629 11.6976 9.74398 11.6976 9.6647C11.6976 9.6647 11.6577 9.62506 11.5777 9.58542Z" fill="#27AE60"/>
</svg>
