<svg width="40" height="12" viewBox="0 0 40 12" fill="none" xmlns="http://www.w3.org/2000/svg">
<path fill-rule="evenodd" clip-rule="evenodd" d="M11.7965 4.69173C12.5894 5.11262 13.1281 5.93763 13.1283 6.88622C13.1283 8.14584 12.1789 9.18711 10.9459 9.35516L10.9326 9.35696L10.9193 9.3589L10.9057 9.36043L10.8925 9.36195L10.8793 9.36347L10.8659 9.365L10.8525 9.36652L10.8394 9.36763L10.8261 9.36874L10.8127 9.36999L10.7996 9.37109L10.7862 9.37206L10.7731 9.37289L10.76 9.37373L10.7468 9.37456L10.7337 9.37525L10.7206 9.37594L10.7074 9.37636L10.6944 9.37691L10.6813 9.37733L10.6681 9.37788L10.655 9.37816L10.642 9.3783L10.6289 9.37858L10.616 9.37871L10.6029 9.37885L10.596 9.37899L10.5897 9.37885L10.5767 9.37871L10.5638 9.37858L10.5507 9.3783L10.5376 9.37816L10.5246 9.37788L10.5117 9.37747L10.4986 9.37691L10.4856 9.3765L10.4725 9.37594L10.4597 9.37539L10.4468 9.37456L10.4338 9.37373L10.421 9.37303L10.4081 9.3722L10.3951 9.37123L10.3823 9.37012L10.3695 9.36902L10.3565 9.36777L10.3437 9.36666L10.3309 9.36541L10.3181 9.36389L10.3053 9.3625L10.2926 9.36112L10.2798 9.35959L10.2671 9.35793L10.2544 9.35627L10.2416 9.35461L10.229 9.35281L10.2163 9.35114L10.2036 9.3492L10.1908 9.34713L10.1783 9.34505L10.1656 9.34297L10.1531 9.34089L10.1405 9.33867L10.1279 9.33632L10.1153 9.33396L10.1028 9.33161L10.0901 9.32925L10.0776 9.32676L10.0651 9.32399L10.0526 9.32136L10.0399 9.31872L10.0274 9.31596L10.0148 9.31304L10.0024 9.31L9.9899 9.30709L9.97737 9.30404L9.96498 9.30099L9.95245 9.29767L9.93992 9.29434L9.92753 9.29102L9.91514 9.28783L9.90261 9.28451L9.89023 9.28076L9.87769 9.27716L9.86545 9.27356L9.85306 9.2701L9.84053 9.26636L9.82828 9.26234L9.81603 9.25832L9.80364 9.25444L9.79139 9.25042L9.77914 9.24641L9.76675 9.24211L9.75464 9.23796L9.74225 9.23366L9.73001 9.22937L9.71776 9.22493L9.70565 9.22036L9.6934 9.21579L9.68129 9.21136L9.66919 9.20678L9.65694 9.20193L9.64483 9.19709L9.63272 9.19224L9.62061 9.18739L9.6085 9.18254L9.5964 9.17727L9.58429 9.17215L9.57218 9.16688L9.56007 9.16176L9.54797 9.15635L9.53586 9.15081L9.52389 9.14541L9.51178 9.13987L9.49981 9.13433L9.48785 9.12837L9.47574 9.12255L9.46377 9.11673L9.45166 9.11078L9.4397 9.10482L9.42773 9.09872L9.4159 9.09249L9.4038 9.08625L9.39197 9.08016L9.38014 9.07365L9.36818 9.06713L9.35635 9.06062L9.34466 9.05411L9.3327 9.04746L9.32101 9.04067L9.30919 9.03375L9.29722 9.02696L9.28553 9.02003L9.27385 9.01296L9.26216 9.00562L9.25048 8.99842L9.23879 8.99121L9.22711 8.98387L9.21542 8.97639L9.20373 8.96877L9.19205 8.96115L9.18036 8.95353L9.16868 8.94563L9.15699 8.9376L9.14531 8.92984L9.13376 8.92194L9.12208 8.91377L9.11053 8.90546L9.09899 8.89728L9.08744 8.88897L9.0759 8.88052L9.06449 8.87179L9.05281 8.86306L9.0414 8.85447L9.02986 8.84561L9.01845 8.8366L9.00705 8.8276L8.99565 8.81859L8.98424 8.80945L8.97298 8.80003L8.96172 8.79047L8.95031 8.78105L8.93905 8.77149L8.92793 8.76179L8.91666 8.75195L8.9054 8.74212L8.894 8.73214L8.88287 8.72203L8.87175 8.71192L8.86063 8.70153L8.84937 8.69141L8.83824 8.68074L8.82712 8.67008L8.816 8.65941L8.80502 8.64874L8.79389 8.63766L8.78277 8.62657L8.77179 8.61549L8.76067 8.60413L8.74969 8.59263L8.73885 8.58113L8.72786 8.5695L8.71702 8.55786L8.70618 8.54581L8.69534 8.53389L8.6845 8.52184L8.6738 8.50951L8.66296 8.4969L8.65226 8.48443L8.64156 8.47196L8.63086 8.4588L8.6203 8.44578L8.6096 8.43289L8.59904 8.41946L8.58848 8.40588L8.57792 8.3923L8.56736 8.37872L8.55695 8.36473L8.54639 8.3506L8.53597 8.33647L8.52555 8.3222L8.51527 8.30751L8.50485 8.29255L8.49458 8.27787L8.4843 8.26263L8.47416 8.24725L8.46388 8.23201L8.45375 8.21622L8.44361 8.20015L8.43347 8.18407L8.42348 8.16773L8.41348 8.1511L8.40348 8.13448L8.39349 8.11744L8.38363 8.09998L8.37378 8.08252L8.36406 8.06479L8.35421 8.0465L8.34449 8.02835L8.33478 8.00979L8.32506 7.99081L8.31549 7.97183L8.30606 7.9523L8.29662 7.93248L8.28733 7.91267L8.27804 7.89189L8.26875 7.87083L8.25946 7.84978L8.25045 7.82789L8.24129 7.806L8.23242 7.78341L8.22355 7.76042L8.21469 7.73714L8.20596 7.71304L8.19737 7.68879L8.18892 7.66344L8.18061 7.63795L8.17231 7.61162L8.164 7.58447L8.15612 7.55704L8.14823 7.5285L8.14035 7.49941L8.13289 7.4692L8.12557 7.43817L8.11838 7.40575L8.11149 7.37236L8.10473 7.33759L8.09839 7.30115L8.0922 7.26375L8.08643 7.22343L8.08108 7.18145L8.07615 7.13754L8.07178 7.08932L8.06826 7.03779L8.06545 6.98126L8.0639 6.91823L8.06348 6.88678L8.06404 6.84632C8.06817 6.57625 8.11696 6.30865 8.20849 6.05401L8.23369 5.98709L8.25734 5.92932L8.27973 5.87806L8.30127 5.83179L8.32225 5.78884L8.34252 5.74894L8.36223 5.71209L8.3818 5.6769L8.40095 5.64351L8.41968 5.61248L8.4384 5.58214L8.4567 5.55304L8.47472 5.52561L8.49274 5.49874L8.51034 5.47338L8.52794 5.44845L8.54526 5.42476L8.56258 5.40162L8.57961 5.37931L8.59679 5.35742L8.61368 5.33637L8.63044 5.31586L8.64719 5.29577L8.66381 5.27638L8.68028 5.25712L8.69675 5.23883L8.71308 5.22082L8.72941 5.20323L8.7456 5.18619L8.76165 5.16915L8.7777 5.15294L8.79375 5.13673L8.80966 5.12093L8.82543 5.1057L8.84134 5.09046L8.85725 5.07563L8.87288 5.06136L8.88865 5.04695L8.90413 5.03324L8.91962 5.0198L8.93525 5.00608L8.95059 4.9932L8.96608 4.98032L8.98157 4.96743L8.99677 4.9551L9.01198 4.94319L9.02732 4.93099L9.04253 4.91936L9.05773 4.90786L9.0728 4.89636L9.08786 4.88528L9.10279 4.87447L9.11785 4.86366L9.13278 4.853L9.1477 4.84288L9.16262 4.83277L9.17755 4.82266L9.19233 4.81296L9.20725 4.80326L9.22204 4.7937L9.23682 4.78428L9.2516 4.77514L9.26624 4.76613L9.28089 4.75713L9.29553 4.7484L9.31003 4.73995L9.32453 4.73136L9.33917 4.72291L9.35367 4.71501L9.36804 4.70697L9.38254 4.69908L9.39704 4.69132L9.4114 4.68384L9.4259 4.67636L9.44026 4.66888L9.45462 4.66181L9.46898 4.65474L9.48334 4.64782L9.49756 4.64075L9.51192 4.6341L9.52614 4.62759L9.54036 4.62108L9.55458 4.61443L9.5688 4.60833L9.58288 4.60224L9.5971 4.59614L9.61118 4.59018L9.62526 4.58437L9.63934 4.57882L9.65342 4.57314L9.6675 4.56746L9.68143 4.56206L9.69551 4.5568L9.70945 4.55153L9.72339 4.54627L9.73747 4.54142L9.75141 4.53657L9.76534 4.53172L9.77928 4.52687L9.79322 4.52244L9.80702 4.518L9.82096 4.51357L9.83489 4.50914L9.84869 4.50484L9.86249 4.50096L9.87629 4.49695L9.89008 4.49293L9.90388 4.48891L9.91768 4.48531L9.93134 4.48171L9.94499 4.47797L9.95879 4.47436L9.97245 4.4709L9.98596 4.46758L9.99976 4.46439L10.0133 4.46106L10.0269 4.45788L10.0406 4.45497L10.0541 4.45206L10.0678 4.44915L10.0814 4.4461L10.0949 4.44347L10.1084 4.44098L10.1221 4.43848L10.1356 4.43585L10.1491 4.43336L10.1627 4.43114L10.1762 4.42906L10.1895 4.42684L10.2032 4.42477L10.2166 4.42269L10.2301 4.42075L10.2436 4.41895L10.2568 4.41701L10.2702 4.41521L10.2837 4.41354L10.297 4.41202L10.3102 4.4105L10.3237 4.40897L10.337 4.40745L10.3502 4.40634L10.3634 4.40509L10.3767 4.40398L10.39 4.40274L10.4033 4.40163L10.4164 4.4008L10.4296 4.39997L10.4428 4.39914L10.4559 4.3983L10.469 4.39747L10.4822 4.39706L10.4953 4.3965L10.5084 4.39609L10.5215 4.39567L10.5346 4.39526L10.5477 4.39498L10.5608 4.3947L10.5739 4.39456L10.5869 4.39443L10.5973 4.39429H10.5999L10.6129 4.39456L10.6259 4.39484L10.6389 4.39498L10.652 4.39512L10.665 4.3954L10.6781 4.39581L10.691 4.39637L10.7041 4.39678L10.7171 4.3972L10.73 4.39775L10.743 4.39858L10.7558 4.39928L10.7688 4.40011L10.7817 4.40094L10.7947 4.40177L10.8075 4.40288L10.8203 4.40412L10.8331 4.40523L10.8459 4.40634L10.859 4.40745L10.8717 4.40897L10.8843 4.41036L10.8973 4.41188L10.91 4.41327L10.9226 4.41479L10.9354 4.41659L10.9481 4.41826L10.9608 4.42006L10.9735 4.42186L10.9861 4.42366L10.9988 4.42574L11.0116 4.42781L11.0241 4.42989L11.0367 4.43197L11.0493 4.43405L11.0619 4.4364L11.0744 4.43876L11.0871 4.44125L11.0996 4.44361L11.1121 4.4461L11.1247 4.44887L11.1372 4.4515L11.1497 4.45414L11.1624 4.45677L11.1749 4.45954L11.1875 4.46259L11.2 4.46564L11.2125 4.46868L11.2251 4.47173L11.2376 4.47492L11.25 4.47824L11.2625 4.48157L11.275 4.48489L11.2874 4.48822L11.2998 4.49168L11.3123 4.49528L11.3247 4.49889L11.3371 4.50249L11.3495 4.50609L11.3618 4.51011L11.3742 4.51399L11.3865 4.518L11.3988 4.52188L11.411 4.5259L11.4233 4.53006L11.4355 4.53435L11.4478 4.53851L11.4602 4.54294L11.4724 4.54724L11.4845 4.55181L11.4968 4.55638L11.5089 4.56095L11.521 4.56539L11.5332 4.57023L11.5454 4.57508L11.5575 4.57993L11.5696 4.58478L11.5817 4.58963L11.5938 4.59476L11.606 4.60002L11.6181 4.60515L11.6302 4.61041L11.6424 4.61568L11.6545 4.62108L11.6664 4.62662L11.6785 4.63216L11.6906 4.6377L11.7026 4.64338L11.7147 4.64934L11.7267 4.65516L11.7388 4.66112L11.7508 4.66694L11.7627 4.67303L11.7747 4.67913L11.7867 4.68536L11.7985 4.69146L11.7965 4.69173Z" fill="#4D565F"/>
<path fill-rule="evenodd" clip-rule="evenodd" d="M9.91979 9.57161C10.227 8.40455 9.45322 7.31506 8.61523 7.4313C8.61523 7.4313 8.7097 6.87436 9.33073 6.68955C9.95203 6.50487 10.1622 6.88323 10.1622 6.88323C10.1622 6.88309 9.79801 6.36051 9.95583 5.80579C10.1137 5.25108 10.6333 5.00932 10.6333 5.00932L10.6273 5.00586C10.6273 5.00586 11.1434 5.25509 11.2928 5.81203C11.4426 6.36938 11.071 6.88683 11.071 6.88683C11.071 6.88683 11.287 6.51111 11.9049 6.70465C12.5231 6.89819 12.6097 7.45623 12.6097 7.45623C11.6794 7.24524 10.9021 8.39263 11.274 9.57771L9.91979 9.57134V9.57161Z" fill="white"/>
<path d="M6.56207 6.33068C5.89557 6.65016 5.12658 6.85201 4.22088 6.85201C3.50313 6.85201 2.93913 6.63339 2.61461 6.21292C2.44369 5.97754 2.35823 5.6075 2.34119 5.37225C5.70762 5.45635 7.7754 4.69964 7.7754 2.61432C7.7754 1.084 6.56207 0.142334 4.87034 0.142334C1.84561 0.142334 0 2.74884 0 5.25449C0 7.40687 1.23036 8.73824 3.60563 8.73824C4.54554 8.73824 5.75887 8.57006 6.73285 8.07962L6.56193 6.33082L6.56207 6.33068ZM5.46842 2.59742C5.46842 3.37089 4.51147 3.62317 2.58026 3.60641C2.75117 2.8497 3.41767 1.90804 4.56258 1.90804C5.12658 1.90804 5.46828 2.19385 5.46828 2.59742H5.46842Z" fill="#4D565F"/>
<path d="M31.2507 0.259626L34.2926 8.48258H36.89L40.0002 0.259626H37.2661L36.1895 4.07684C36.0015 4.78312 35.8649 5.40531 35.7281 6.07807H35.6768C35.5401 5.42221 35.4033 4.78326 35.1983 4.07684L34.0704 0.259626H31.2508H31.2507ZM22.0088 2.71471C22.0088 1.4871 22.0429 0.797581 22.0771 0.259626H19.8215L19.736 1.25186H19.7018C19.2747 0.562337 18.5569 0.0748122 17.412 0.0748122C15.3442 0.0748122 13.6182 1.75628 13.6182 4.41322C13.6182 6.76759 15.0879 8.41539 17.1556 8.41539C18.1126 8.41539 18.9158 8.02872 19.4114 7.35597H19.4456V7.8773C19.4456 9.41039 18.5058 10.0493 17.2753 10.0493C16.2842 10.0493 15.3786 9.72987 14.8488 9.42715L14.3362 11.3778C15.088 11.7814 16.2329 12 17.3437 12C18.5741 12 19.8216 11.7646 20.7273 10.991C21.6843 10.1671 22.0091 8.8723 22.0091 7.28878V2.71485L22.0088 2.71471ZM19.4112 4.81665C19.4112 5.03527 19.3942 5.30432 19.3258 5.50603C19.1549 6.09455 18.6252 6.53179 17.9415 6.53179C16.8651 6.53179 16.2498 5.57336 16.2498 4.34575C16.2498 2.84909 17.0016 2.00829 17.9586 2.00829C18.6763 2.00829 19.1719 2.46243 19.3599 3.1349C19.3938 3.28965 19.411 3.4475 19.4111 3.60581V4.81651L19.4112 4.81665ZM27.2925 0.000138465C24.5925 0.000138465 22.8151 1.69851 22.8151 4.37221C22.8151 7.02915 24.6949 8.61254 27.1386 8.61254C29.3773 8.61254 31.5476 7.23087 31.5476 4.22079C31.5476 1.73204 29.8387 0 27.2925 0V0.000138465ZM27.2071 1.83303C28.3862 1.83303 28.8647 3.07741 28.8647 4.28812C28.8647 5.78464 28.2324 6.77687 27.2071 6.77687C26.0962 6.77687 25.4982 5.71745 25.4982 4.30488C25.4982 3.09417 25.9767 1.8329 27.2071 1.8329V1.83303Z" fill="url(#paint0_linear_18949_17514)"/>
<defs>
<linearGradient id="paint0_linear_18949_17514" x1="26.8092" y1="11.9999" x2="26.8092" y2="0.000138756" gradientUnits="userSpaceOnUse">
<stop stop-color="#1F7042"/>
<stop offset="1" stop-color="#27AE60"/>
</linearGradient>
</defs>
</svg>
