<svg width="13" height="16" viewBox="0 0 13 16" fill="none" xmlns="http://www.w3.org/2000/svg">
<path fill-rule="evenodd" clip-rule="evenodd" d="M12 14.706V1.467C12 1.177 11.749 0.941 11.441 0.941H4.707L1 4.431V14.706H0V4.04L4.293 0H11.441C12.301 0 13 0.658 13 1.467V14.706H12Z" fill="#000D1A"/>
<path fill-rule="evenodd" clip-rule="evenodd" d="M11.5 16H1.5C0.673 16 0 15.367 0 14.588H1C1 14.848 1.224 15.058 1.5 15.058H11.5C11.775 15.058 12 14.848 12 14.588H13C13 15.367 12.327 16 11.5 16ZM4.009 5H9.009V6H4.009V5ZM4.009 8H9.009V9H4.009V8ZM4.009 11H9.009V12H4.009V11Z" fill="#000D1A"/>
</svg>
